<svg version="1.1" xmlns="http://www.w3.org/2000/svg" viewBox="0 0 28 28" fill="currentColor"><path d="M21.334,13.167c-0.305,0-0.604-0.138-0.801-0.4c-0.332-0.442-0.242-1.069,0.2-1.4l2.6-1.95l-2.6-1.95c-0.442-0.331-0.532-0.958-0.2-1.4c0.331-0.441,0.958-0.532,1.399-0.2l3.667,2.75c0.252,0.188,0.4,0.485,0.4,0.8s-0.148,0.611-0.4,0.8l-3.667,2.75C21.753,13.102,21.543,13.167,21.334,13.167z"/><path d="M3,20.5c-0.552,0-1-0.447-1-1s0.448-1,1-1c3.659,0,7.084-1.888,9.165-5.05c2.748-4.178,6.63-5.034,11.613-5.034c0.553,0,1,0.448,1,1s-0.447,1-1,1c-4.459,0-7.678,0.691-9.942,4.133C11.384,18.275,7.334,20.5,3,20.5z"/><path d="M21.334,22.333c-0.305,0-0.604-0.138-0.801-0.4c-0.332-0.441-0.242-1.068,0.2-1.399l2.6-1.95l-2.6-1.95c-0.442-0.331-0.532-0.958-0.2-1.399c0.331-0.442,0.958-0.532,1.399-0.2l3.667,2.75c0.252,0.188,0.4,0.485,0.4,0.8s-0.148,0.611-0.4,0.8l-3.667,2.75C21.753,22.268,21.543,22.333,21.334,22.333z"/><path d="M23.777,19.583c-4.983,0-8.865-0.856-11.613-5.033C10.084,11.388,6.659,9.5,3,9.5c-0.552,0-1-0.448-1-1s0.448-1,1-1c4.334,0,8.384,2.225,10.835,5.95c2.264,3.441,5.482,4.133,9.942,4.133c0.553,0,1,0.447,1,1S24.33,19.583,23.777,19.583z"/></svg>
