<svg version="1.1" xmlns="http://www.w3.org/2000/svg" viewBox="0 0 28 28" fill="currentColor"><path d="M19.53,17.694l-0.765-1.848c0.494-0.205,0.878-0.589,1.083-1.081c0.422-1.019-0.063-2.191-1.082-2.613l0.765-1.848c2.037,0.843,3.008,3.188,2.164,5.227C21.287,16.518,20.518,17.285,19.53,17.694z"/><path d="M15.664,24.535c-0.259,0-0.656-0.078-1.076-0.451l-4.13-3.673C10.229,20.208,9.682,20,9.375,20H8c-1.103,0-2-0.897-2-2v-8c0-1.103,0.897-2,2-2h1.375c0.307,0,0.854-0.208,1.083-0.412l4.13-3.671c0.42-0.374,0.817-0.452,1.076-0.452C16.328,3.465,17,3.992,17,5v18C17,24.008,16.328,24.535,15.664,24.535z M8,10v8h1.375c0.8,0,1.814,0.386,2.412,0.916L15,21.772V6.228l-3.213,2.855C11.189,9.614,10.175,10,9.375,10H8z"/></svg>
