<svg version="1.1" xmlns="http://www.w3.org/2000/svg" viewBox="0 0 28 28" fill="currentColor"><path d="M18.164,24.535c-0.259,0-0.656-0.078-1.076-0.451l-4.13-3.673C12.729,20.208,12.182,20,11.875,20H10.5c-1.103,0-2-0.897-2-2v-8c0-1.103,0.897-2,2-2h1.375c0.307,0,0.854-0.208,1.083-0.412l4.13-3.671c0.42-0.374,0.817-0.452,1.076-0.452C18.828,3.465,19.5,3.992,19.5,5v18C19.5,24.008,18.828,24.535,18.164,24.535z M10.5,10v8h1.375c0.8,0,1.814,0.386,2.412,0.916l3.213,2.856V6.228l-3.213,2.855C13.689,9.614,12.675,10,11.875,10H10.5z"/></svg>
