<svg version="1.1" xmlns="http://www.w3.org/2000/svg" viewBox="0 0 28 28" fill="currentColor"><path d="M9.2,20.4C6.7,19.3,5,16.8,5,14c0-3.9,3.1-7,7-7h1.6l-1.8,1.8c-0.4,0.4-0.4,1,0,1.4c0.2,0.2,0.5,0.3,0.7,0.3s0.5-0.1,0.7-0.3l3.5-3.5c0.4-0.4,0.4-1,0-1.4l-3.5-3.5c-0.4-0.4-1-0.4-1.4,0c-0.4,0.4-0.4,1,0,1.4L13.6,5H12c-5,0-9,4-9,9c0,3.6,2.1,6.8,5.4,8.3c0.1,0.1,0.3,0.1,0.4,0.1c0.4,0,0.8-0.2,0.9-0.6C10,21.2,9.7,20.6,9.2,20.4z"/><path d="M25,14c0-3.6-2.2-6.9-5.5-8.3c-0.5-0.2-1.1,0-1.3,0.5c-0.2,0.5,0,1.1,0.5,1.3C21.3,8.6,23,11.2,23,14c0,3.9-3.1,7-7,7h-1.6l1.8-1.8c0.4-0.4,0.4-1,0-1.4s-1-0.4-1.4,0l-3.5,3.5c-0.1,0.1-0.2,0.2-0.2,0.3c-0.1,0.2-0.1,0.5,0,0.8c0.1,0.1,0.1,0.2,0.2,0.3l3.5,3.5c0.2,0.2,0.5,0.3,0.7,0.3s0.5-0.1,0.7-0.3c0.4-0.4,0.4-1,0-1.4L14.4,23H16C21,23,25,19,25,14z"/></svg>
