<svg version="1.1" xmlns="http://www.w3.org/2000/svg" viewBox="0 0 28 28" fill="currentColor"><path d="M18.593,25.086l-0.766-1.848c2.467-1.021,4.39-2.943,5.412-5.411c2.109-5.095-0.318-10.956-5.412-13.066l0.766-1.848c6.112,2.532,9.025,9.565,6.494,15.679C23.859,21.554,21.553,23.859,18.593,25.086z"/><path d="M17.061,21.388l-0.766-1.848c1.482-0.614,2.637-1.767,3.248-3.244c0.612-1.478,0.611-3.108-0.003-4.591c-0.614-1.482-1.767-2.636-3.244-3.249l0.766-1.848c1.971,0.816,3.508,2.354,4.326,4.331c0.818,1.977,0.819,4.15,0.003,6.122C20.575,19.032,19.037,20.568,17.061,21.388z"/><path d="M15.53,17.694l-0.765-1.848c0.494-0.205,0.878-0.589,1.083-1.081c0.422-1.019-0.063-2.191-1.082-2.613l0.765-1.848c2.037,0.843,3.008,3.188,2.164,5.227C17.287,16.518,16.518,17.285,15.53,17.694z"/><path d="M11.664,24.535c-0.259,0-0.656-0.078-1.076-0.451l-4.13-3.673C6.229,20.208,5.682,20,5.375,20H4c-1.103,0-2-0.897-2-2v-8c0-1.103,0.897-2,2-2h1.375c0.307,0,0.854-0.208,1.083-0.412l4.13-3.671c0.42-0.374,0.817-0.452,1.076-0.452C12.328,3.465,13,3.992,13,5v18C13,24.008,12.328,24.535,11.664,24.535z M4,10v8h1.375c0.8,0,1.814,0.386,2.412,0.916L11,21.772V6.228L7.787,9.083C7.189,9.614,6.175,10,5.375,10H4z"/></svg>
